<?xml version="1.0" encoding="UTF-8"?>
<svg width="64" height="64" version="1.1" viewBox="0 0 16.933 16.933" xmlns="http://www.w3.org/2000/svg" xmlns:cc="http://creativecommons.org/ns#" xmlns:dc="http://purl.org/dc/elements/1.1/" xmlns:rdf="http://www.w3.org/1999/02/22-rdf-syntax-ns#">
 <defs>
  <linearGradient id="a-3" x1="61.531" x2="2.6611" y1="2" y2="61.808" gradientTransform="matrix(.26458 0 0 .26458 4.5735 4.7625)" gradientUnits="userSpaceOnUse">
   <stop stop-color="#dc28e6" offset="0"/>
   <stop stop-color="#8c14e6" offset="1"/>
  </linearGradient>
  <filter id="filter11290" x="-.024" y="-.024" width="1.048" height="1.048" color-interpolation-filters="sRGB">
   <feGaussianBlur stdDeviation="0.15875313"/>
  </filter>
 </defs>
 <metadata>
  <rdf:RDF>
   <cc:Work rdf:about="">
    <dc:format>image/svg+xml</dc:format>
    <dc:type rdf:resource="http://purl.org/dc/dcmitype/StillImage"/>
    <dc:title/>
   </cc:Work>
  </rdf:RDF>
 </metadata>
 <circle cx="8.4665" cy="8.4665" r="7.9377" filter="url(#filter11290)" opacity=".25" stroke-width=".14032"/>
 <g transform="translate(-4.5735 -4.7625)">
  <circle cx="13.04" cy="13.229" r="7.9375" fill="url(#a-3)" stroke-width=".26458" style="paint-order:stroke markers fill"/>
  <g fill="#fff" fill-opacity=".85098">
   <path d="m11.801 10.746a2.5832 2.5832 0 0 0-1.2863 2.1264 1.5195 5.3183 60 0 0-2.0279 2.7698 1.5195 5.3183 60 0 0 3.4095-0.37085 2.5832 2.5832 0 0 0 2.4878-0.0512 2.5832 2.5832 0 0 0 1.2863-2.1264 1.5195 5.3183 60 0 0 2.0279-2.7698 1.5195 5.3183 60 0 0-3.4092 0.37003 2.5832 2.5832 0 0 0-2.4881 0.05201zm2.991 0.29567a1.0853 3.7988 60 0 1 1.5903 0.04202 1.0853 3.7988 60 0 1-0.75893 1.3957 2.5832 2.5832 0 0 0-0.2938-0.78786 2.5832 2.5832 0 0 0-0.5376-0.64983zm-4.2306 2.4446a2.5832 2.5832 0 0 0 0.29409 0.78835 2.5832 2.5832 0 0 0 0.53733 0.64931 1.0853 3.7988 60 0 1-1.5901-0.04151 1.0853 3.7988 60 0 1 0.75866-1.3961z" stroke-width=".3039"/>
   <path d="m11.482 9.1522c0.0082-0.021823-0.0032-0.041595-0.03423-0.059349l-0.41972-0.23174-0.04749-0.4774c-0.0021-0.02839-0.012-0.04592-0.02969-0.052581-0.01769-0.00665-0.03669-1.56e-5 -0.05699 0.019944l-0.35055 0.32754-0.46834-0.10261c-0.03501-0.00713-0.05663 2.91e-4 -0.06485 0.022042-0.0047 0.012393-0.0026 0.02932 0.0061 0.050788l0.20412 0.43434-0.24258 0.41364c-0.00429 0.00782-0.0071 0.013502-0.00843 0.017029-0.00466 0.012377-0.0055 0.024011-0.00254 0.034906 0.00295 0.010877 0.010639 0.018645 0.023029 0.02331 0.010613 4e-3 0.023734 0.00491 0.03938 0.0027l0.47576-0.059242 0.31858 0.3583c0.0097 0.01175 0.02019 0.019722 0.03137 0.023931 0.01182 0.00445 0.02241 0.00358 0.03182-0.00265 0.0094-0.00623 0.01644-0.015528 0.0211-0.027919 0.0029-0.00766 0.0048-0.013658 0.0057-0.018042l0.09044-0.47089 0.43898-0.19224c0.02112-0.00955 0.03411-0.020825 0.03899-0.0338z" stroke-width=".14036"/>
   <path d="m12.867 16.705c-0.02301 0.0038-0.03443 0.02356-0.03428 0.05932l0.0092 0.47934-0.38969 0.27983c-0.02354 0.01601-0.03377 0.03335-0.03069 0.052 0.0031 0.01864 0.01833 0.03178 0.04577 0.03939l0.45892 0.13982 0.14531 0.45691c0.01133 0.03389 0.02856 0.04891 0.05151 0.04514 0.01306-0.0022 0.0267-0.0124 0.04092-0.03071l0.27411-0.39392 0.4795 0.0033c0.0089-1.91e-4 0.01524-6.09e-4 0.01896-0.0012 0.01305-0.0022 0.02355-0.0072 0.03151-0.01524 0.0079-8e-3 0.01083-0.01853 0.0087-0.0316-0.0019-0.01119-0.0076-0.02301-0.01735-0.03546l-0.28918-0.3824 0.15101-0.45506c0.0053-0.0143 7e-3 -0.02735 5e-3 -0.03914-0.0021-0.01246-0.0081-0.02119-0.0182-0.02623-0.01009-5e-3 -0.02166-0.0065-0.03473-0.0043-0.0081 0.0013-0.01425 0.0026-0.01849 0.0041l-0.45302 0.15713-0.38595-0.28404c-0.01884-0.0135-0.03509-0.01913-0.04877-0.01687z" stroke-width=".14036"/>
   <g stroke-width=".084214">
    <path d="m18.124 13.767c-0.0089-0.01081-0.02257-0.01082-0.04111-1.8e-5l-0.24633 0.14856-0.26231-0.11854c-0.01537-0.0074-0.02746-0.0075-0.03623-3.44e-4 -0.0088 0.0072-0.01101 0.01906-0.0067 0.0356l0.06502 0.28042-0.19382 0.21258c-0.01421 0.01605-0.01685 0.02951-8e-3 0.04031 0.0051 0.0061 0.01444 0.01016 0.02823 0.01205l0.28692 0.02426 0.14216 0.25013c0.0028 0.0046 0.0049 0.0077 0.0063 0.0095 5e-3 0.0061 0.01082 0.01007 0.01738 0.01179 0.0065 0.0017 0.01288 6.3e-5 0.01902-5e-3 0.0053-0.0043 0.0097-0.01086 0.01321-0.01966l0.11194-0.26498 0.28175-0.05805c9e-3 -0.0015 0.01631-0.0046 0.02184-0.0091 0.0059-0.0048 0.0086-0.01056 0.0082-0.01732-4.23e-4 -0.0068-0.0031-0.0132-0.0082-0.01934-0.0031-0.0038-0.0056-0.0066-0.0077-0.0084l-0.21756-0.18827 0.0318-0.28577c0.0014-0.01384-5.82e-4 -0.02397-0.0059-0.0304z"/>
    <path d="m15.838 8.4681c-0.0023-0.013803-0.01414-0.020656-0.03559-0.020569l-0.2876 0.0055-0.1679-0.23382c-0.0096-0.014129-0.02001-0.020262-0.0312-0.018415-0.01119 0.00185-0.01907 0.010999-0.02363 0.027462l-0.0839 0.27536-0.27414 0.087183c-0.02033 0.0068-0.02934 0.017137-0.02708 0.03091 0.0013 0.00784 0.0074 0.016026 0.01842 0.024548l0.23635 0.16447-2e-3 0.2877c1.09e-4 0.00536 3.71e-4 0.00915 7.41e-4 0.011382 0.0013 0.00783 0.0043 0.014129 0.0092 0.018899 0.0048 0.00477 0.01112 0.0065 0.01896 0.0052 0.0067-0.00108 0.01381-0.00457 0.02127-0.010422l0.22943-0.17351 0.27303 0.090605c0.0086 0.00319 0.01641 0.00419 0.02348 0.00301 0.0075-0.00122 0.01272-0.00485 0.01574-0.010914 3e-3 -0.00606 0.0039-0.013002 0.0026-0.020836-7.94e-4 -0.00485-0.0016-0.00855-0.0024-0.011094l-0.09428-0.27182 0.17042-0.23158c0.0081-0.011298 0.01148-0.021056 0.01012-0.029261z"/>
    <path d="m8.6798 12.405c-0.00228-0.0138-0.014137-0.02066-0.03559-0.02057l-0.28761 0.0055-0.1679-0.23382c-0.0096-0.01413-0.02001-0.02026-0.031198-0.01842-0.011187 0.0019-0.019069 0.011-0.02363 0.02746l-0.083895 0.27536-0.27414 0.08718c-0.020333 0.0068-0.029343 0.01714-0.027084 0.03091 0.0013 0.0078 0.00743 0.01603 0.018423 0.02455l0.23635 0.16447-0.00196 0.2877c1.093e-4 0.0054 3.705e-4 0.0091 7.144e-4 0.01138 0.0013 0.0078 0.00434 0.01413 0.00916 0.0189 0.00479 0.0048 0.011123 0.0065 0.01896 0.0052 0.00672-0.0011 0.013806-0.0046 0.021267-0.01042l0.22943-0.17351 0.27303 0.09061c0.00858 0.0032 0.016409 0.0042 0.023484 3e-3 0.00748-0.0012 0.012719-0.0049 0.015743-0.01091 0.00301-0.0061 0.00388-0.013 0.00259-0.02084-7.937e-4 -0.0048-0.00156-0.0086-0.00243-0.0111l-0.094279-0.27181 0.17042-0.23158c0.00811-0.0113 0.011475-0.02106 0.010123-0.02926z"/>
   </g>
  </g>
 </g>
</svg>
