<?xml version="1.0" encoding="UTF-8"?>
<svg width="64" height="64" version="1.1" viewBox="0 0 16.933 16.933" xmlns="http://www.w3.org/2000/svg" xmlns:cc="http://creativecommons.org/ns#" xmlns:dc="http://purl.org/dc/elements/1.1/" xmlns:rdf="http://www.w3.org/1999/02/22-rdf-syntax-ns#" xmlns:xlink="http://www.w3.org/1999/xlink">
 <defs>
  <linearGradient id="linearGradient1051">
   <stop stop-color="#feef10" offset="0"/>
   <stop stop-color="#fd9512" offset="1"/>
  </linearGradient>
  <linearGradient id="linearGradient1307" x1="16.393" x2=".60977" y1=".69761" y2="16.375" gradientTransform="matrix(1 0 0 1 -.035056 .00645)" gradientUnits="userSpaceOnUse">
   <stop stop-color="#ffdc32" offset="0"/>
   <stop stop-color="#ff7832" offset="1"/>
  </linearGradient>
  <filter id="filter11290" x="-.024" y="-.024" width="1.048" height="1.048" color-interpolation-filters="sRGB">
   <feGaussianBlur stdDeviation="0.15875313"/>
  </filter>
  <linearGradient id="linearGradient1027" x1="-20.426" x2="-13.597" y1="4.9498" y2=".060871" gradientUnits="userSpaceOnUse">
   <stop stop-color="#dfa140" offset="0"/>
   <stop stop-color="#ffc402" offset=".32076"/>
   <stop stop-color="#fe8e11" offset=".65598"/>
   <stop stop-color="#fd860a" offset=".78127"/>
   <stop stop-color="#cd7241" offset="1"/>
  </linearGradient>
  <radialGradient id="radialGradient1055" cx="-17.211" cy="2.1261" r="3.2602" gradientTransform="matrix(1 0 0 .78567 0 .45568)" gradientUnits="userSpaceOnUse" xlink:href="#linearGradient1051"/>
 </defs>
 <metadata>
  <rdf:RDF>
   <cc:Work rdf:about="">
    <dc:format>image/svg+xml</dc:format>
    <dc:type rdf:resource="http://purl.org/dc/dcmitype/StillImage"/>
    <dc:title/>
   </cc:Work>
  </rdf:RDF>
 </metadata>
 <circle transform="matrix(1 0 0 1 -.027201 .0065001)" cx="8.4937" cy="8.46" r="7.9377" filter="url(#filter11290)" opacity=".25" stroke-width=".14032"/>
 <path d="m16.404 8.4666c0 0.95156-0.16749 1.8639-0.47465 2.7095-0.21352 0.58769-0.4944 1.1433-0.83395 1.6572-0.14222 0.21608-0.29515 0.42476-0.45747 0.6253-0.51967 0.6418-1.1372 1.2007-1.8305 1.6543-0.2553 0.16718-0.52066 0.32011-0.79538 0.45713-1.0668 0.5339-2.2711 0.83423-3.5457 0.83423s-2.4788-0.30032-3.5457-0.83426c-0.27474-0.13705-0.54041-0.28998-0.79572-0.45713-0.70208-0.45974-1.327-1.0274-1.8509-1.6798-0.16263-0.20216-0.31525-0.41276-0.45747-0.63079-0.33047-0.50541-0.60422-1.0507-0.81352-1.627-0.30712-0.84531-0.47431-1.7573-0.47431-2.7086 0-4.3839 3.5538-7.9377 7.9377-7.9377 2.2005 0 4.1918 0.8955 5.6296 2.3417 0.41437 0.41663 0.78276 0.87931 1.0963 1.3795 0.29646 0.47108 0.54429 0.97584 0.73706 1.5068 0.30719 0.84561 0.47468 1.7579 0.47468 2.7095z" fill="url(#linearGradient1307)" stroke-width=".031007"/>
 <g transform="matrix(1.2266 0 0 1.2266 29.177 4.9474)">
  <path d="m-15.962-1.024s-3.9548 1.2226-5.139 3.873c-1.1842 2.6504 1.824 4.1367 4.3208 4.0514 2.4968-0.085315 4.3035-2.4779 4.266-4.3806-0.03254-1.6478-0.07639-4.3202-3.4477-3.5438z" fill="#fff"/>
  <path d="m-13.597 0.060871s1.1996 2.7482-0.36462 4.5644c-1.5643 1.8162-4.2766 2.4151-6.4643 0.32457 0 0 1.4508 0.40528 2.529-0.15662 0 0 0.8069 0.36192 1.0982-0.47563 0 0 3.5272-1.8541 3.2017-4.2567z" fill="url(#linearGradient1027)"/>
  <g fill="url(#radialGradient1055)">
   <path d="m-17.715 2.5382s-1.9948 1.9913-1.7438 2.112c0.25107 0.12075 1.6606-0.058854 1.7634-0.43377 0.10274-0.37491 0.30045-1.9191-0.01958-1.6782z"/>
   <path d="m-17.209 2.4461s-0.22742 1.5862 0.12747 1.5439c0.35489-0.042254 1.9367-1.0594 1.8106-1.3677-0.12604-0.30829-1.878-0.53053-1.9381-0.17627z"/>
   <path d="m-16.571 1.7682s-0.16097 0.15238 0.02626 0.20683c0.18723 0.054445 1.4361 0.37112 1.8509 0.055316 0.41479-0.3158 0.86598-1.0072 0.71214-1.2769-0.15384-0.26963-2.5893 1.0147-2.5893 1.0147z"/>
   <path d="m-16.571 1.5285s2.2835-0.90195 2.468-1.3146c0.18452-0.41264-0.51441-0.69755-0.78179-0.54253-0.26738 0.15502-1.6864 1.6175-1.6862 1.8571z"/>
   <path d="m-17.107 1.5141s0.10462-0.01057 0.15662-0.050633c0.24256-0.18687 1.4456-1.443 1.5188-1.6784 0.07322-0.23547-0.24823-0.40008-1.3179 0.14445 0 0-0.44771 0.14069-0.35752 1.5846z"/>
   <path d="m-17.426 1.4386s0.08002-0.95539-0.03082-1.0522c-0.11084-0.096785-1.2839 0.49429-1.4552 0.88497-0.17125 0.39067 1.1701 0.49723 1.2615 0.48387 0.09135-0.013366 0.22456-0.31666 0.22456-0.31666z"/>
   <path d="m-17.996 2.094s-1.2391-0.36406-1.4977-0.16965c-0.25859 0.19441-1.1163 1.2768-0.74409 1.2158 0.37222-0.061018 2.3449-0.70032 2.2418-1.0461z"/>
   <path d="m-18.104 2.5259s-2.2122 0.88152-2.3313 1.2062c-0.11914 0.32472 0.06216 0.83217 0.44185 0.76528 0.37969-0.066893 1.9536-1.9252 1.8895-1.9715z"/>
  </g>
 </g>
</svg>
