<?xml version="1.0" encoding="UTF-8"?>
<svg width="64" height="64" version="1.1" viewBox="0 0 16.933 16.933" xmlns="http://www.w3.org/2000/svg" xmlns:cc="http://creativecommons.org/ns#" xmlns:dc="http://purl.org/dc/elements/1.1/" xmlns:rdf="http://www.w3.org/1999/02/22-rdf-syntax-ns#">
 <defs>
  <filter id="filter11290-7" x="-.024" y="-.024" width="1.048" height="1.048" color-interpolation-filters="sRGB">
   <feGaussianBlur stdDeviation="0.15875313"/>
  </filter>
  <linearGradient id="linearGradient919" x1="2.9831" x2="62.001" y1="61.458" y2="2.4407" gradientTransform="matrix(.26458 0 0 .26458 .00013257 .00011922)" gradientUnits="userSpaceOnUse">
   <stop stop-color="#16a085" offset="0"/>
   <stop stop-color="#2ecc85" offset="1"/>
  </linearGradient>
 </defs>
 <metadata>
  <rdf:RDF>
   <cc:Work rdf:about="">
    <dc:format>image/svg+xml</dc:format>
    <dc:type rdf:resource="http://purl.org/dc/dcmitype/StillImage"/>
    <dc:title/>
   </cc:Work>
  </rdf:RDF>
 </metadata>
 <circle transform="matrix(1 0 0 1 4.005e-6 4.005e-6)" cx="8.4665" cy="8.4665" r="7.9377" filter="url(#filter11290-7)" opacity=".25" stroke-width=".14032"/>
 <path d="m16.404 8.4668c0 0.95155-0.16749 1.8639-0.47466 2.7093-0.21351 0.58769-0.4944 1.1433-0.83394 1.6572-0.14222 0.21608-0.29514 0.42476-0.45746 0.62529-0.51967 0.6418-1.1372 1.2007-1.8305 1.6543-0.2553 0.16718-0.52065 0.32012-0.79539 0.45712-1.0668 0.5339-2.2711 0.83423-3.5457 0.83423-1.2746 0-2.4789-0.30033-3.5457-0.83426-0.27474-0.13705-0.54041-0.28998-0.79571-0.45712-0.70207-0.45974-1.327-1.0274-1.8509-1.6798-0.16263-0.20216-0.31525-0.41275-0.45746-0.63079-0.33046-0.50541-0.60423-1.0507-0.81351-1.627-0.30713-0.84532-0.47432-1.7573-0.47432-2.7085 0-4.3839 3.5539-7.9378 7.9378-7.9378 2.2005 0 4.1918 0.89551 5.6295 2.3417 0.41436 0.41664 0.78274 0.87932 1.0963 1.3795 0.29647 0.47109 0.5443 0.97584 0.73705 1.5068 0.30718 0.84561 0.47469 1.7579 0.47469 2.7093z" fill="url(#linearGradient919)" stroke-width=".031006"/>
 <path transform="scale(.26458)" d="m32 2v60c4.8172 0 9.3683-1.1344 13.4-3.1523 1.0384-0.5178 2.0409-1.0966 3.0059-1.7285 2.6204-1.7144 4.9558-3.8263 6.9199-6.252 0.6135-0.7579 1.191-1.5466 1.7285-2.3633 1.2833-1.9424 2.3454-4.0425 3.1523-6.2637 1.161-3.1952 1.793-6.6438 1.793-10.24 0-3.5958-0.63197-7.0442-1.793-10.24-0.7285-2.0069-1.6647-3.9148-2.7852-5.6953-1.1852-1.8906-2.5784-3.6401-4.1445-5.2148-5.434-5.4661-12.96-8.8496-21.277-8.8496z" fill-rule="evenodd" opacity=".1" stroke-width="2.5889"/>
 <g transform="matrix(1.4059 0 0 1.4059 28.452 -1.6753)" fill="#fff" stroke-width=".090549">
  <path d="m-15.166 3.6575s-0.7454 1.8505-0.74323 2.824c0.0016 0.72439 0.09979 1.5418 0.56249 2.0991 0.3555 0.42821 1.5057 0.7214 1.5057 0.7214l0.37487 1.3994 0.34988-0.09372-0.37487-1.3994s0.84935-0.82907 0.94316-1.3776c0.12206-0.71407-0.20165-1.4711-0.5624-2.0992-0.4848-0.84401-2.0556-2.0739-2.0556-2.0739z" fill-opacity=".4"/>
  <path d="m-13.472 10.706c0.03638 0.13579 0.38454 0.03553 0.34988-0.09381l-0.60389-2.273c-0.09371-0.34973 0.27388-0.91529 0.58795-1.2849-0.31706 0.14043-0.55516 0.48871-0.73399 0.75916l-0.13987-0.52853c-0.10452-0.39008 0.22371-0.7627 0.46458-1.0584-0.32838 0.11608-0.49974 0.31105-0.60595 0.53741l-0.11372-0.41383c-0.0852-0.31798 0.0758-0.55787 0.35729-0.77634-0.22005 0.018857-0.35318 0.10404-0.51828 0.32902-0.11983-0.35932-0.27215-0.68834-0.44787-1.0447 0 0 0.07229 0.80854 0.18829 1.2415-0.15398-0.15398-0.46411-0.1854-0.62158-0.15085 0.32033 0.060552 0.61053 0.28343 0.66544 0.48837l0.14062 0.46812c-0.1272-0.15041-0.38462-0.23373-0.79348-0.20992 0.39197 0.12797 0.79028 0.30275 0.8872 0.66444l0.18744 0.54746c-0.38243-0.18323-0.61889-0.29039-1.0152-0.29039 0.55313 0.16321 1.0531 0.5032 1.1281 0.78288z"/>
 </g>
</svg>
