<?xml version="1.0" encoding="UTF-8"?>
<svg width="64" height="64" version="1.1" viewBox="0 0 16.933 16.933" xmlns="http://www.w3.org/2000/svg" xmlns:cc="http://creativecommons.org/ns#" xmlns:dc="http://purl.org/dc/elements/1.1/" xmlns:rdf="http://www.w3.org/1999/02/22-rdf-syntax-ns#">
 <defs>
  <filter id="filter11290-7" x="-.024" y="-.024" width="1.048" height="1.048" color-interpolation-filters="sRGB">
   <feGaussianBlur stdDeviation="0.15875313"/>
  </filter>
  <linearGradient id="linearGradient919" x1="2.9831" x2="62.001" y1="61.458" y2="2.4407" gradientTransform="matrix(.26458 0 0 .26458 .00013257 .00011922)" gradientUnits="userSpaceOnUse">
   <stop stop-color="#16a085" offset="0"/>
   <stop stop-color="#2ecc85" offset="1"/>
  </linearGradient>
  <linearGradient id="e" x1="32" x2="32" y1="16" y2="48" gradientTransform="matrix(.26458 0 0 .26458 .75244 -.4055)" gradientUnits="userSpaceOnUse">
   <stop stop-color="#fff" offset="0"/>
   <stop stop-color="#bffde9" offset="1"/>
  </linearGradient>
 </defs>
 <metadata>
  <rdf:RDF>
   <cc:Work rdf:about="">
    <dc:format>image/svg+xml</dc:format>
    <dc:type rdf:resource="http://purl.org/dc/dcmitype/StillImage"/>
    <dc:title/>
   </cc:Work>
  </rdf:RDF>
 </metadata>
 <circle transform="matrix(1 0 0 1 4.005e-6 4.005e-6)" cx="8.4665" cy="8.4665" r="7.9377" filter="url(#filter11290-7)" opacity=".25" stroke-width=".14032"/>
 <path d="m16.404 8.4668c0 0.95155-0.16749 1.8639-0.47466 2.7093-0.21351 0.58769-0.4944 1.1433-0.83394 1.6572-0.14222 0.21608-0.29514 0.42476-0.45746 0.62529-0.51967 0.6418-1.1372 1.2007-1.8305 1.6543-0.2553 0.16718-0.52065 0.32012-0.79539 0.45712-1.0668 0.5339-2.2711 0.83423-3.5457 0.83423-1.2746 0-2.4789-0.30033-3.5457-0.83426-0.27474-0.13705-0.54041-0.28998-0.79571-0.45712-0.70207-0.45974-1.327-1.0274-1.8509-1.6798-0.16263-0.20216-0.31525-0.41275-0.45746-0.63079-0.33046-0.50541-0.60423-1.0507-0.81351-1.627-0.30713-0.84532-0.47432-1.7573-0.47432-2.7085 0-4.3839 3.5539-7.9378 7.9378-7.9378 2.2005 0 4.1918 0.89551 5.6295 2.3417 0.41436 0.41664 0.78274 0.87932 1.0963 1.3795 0.29647 0.47109 0.5443 0.97584 0.73705 1.5068 0.30718 0.84561 0.47469 1.7579 0.47469 2.7093z" fill="url(#linearGradient919)" stroke-width=".031006"/>
 <path d="m12.444 7.8596h-0.60476v-1.6127c0-0.44349-0.36285-0.80634-0.80634-0.80634h-1.6127v-0.60476c0-0.56444-0.44349-1.0079-1.0079-1.0079-0.56444 0-1.0079 0.44349-1.0079 1.0079v0.60476h-1.6127c-0.44349 0-0.80634 0.36285-0.80634 0.80634v1.5321h0.60476c0.60476 0 1.0886 0.48382 1.0886 1.0886 0 0.60476-0.48382 1.0886-1.0886 1.0886h-0.60476v1.5321c0 0.44349 0.36285 0.80634 0.80634 0.80634h1.5321v-0.60476c0-0.60476 0.48382-1.0886 1.0886-1.0886s1.0886 0.48382 1.0886 1.0886v0.60476h1.5321c0.4435 0 0.80634-0.36285 0.80634-0.80634v-1.6127h0.60476c0.56444 0 1.0079-0.44349 1.0079-1.0079 0-0.56444-0.4435-1.0079-1.0079-1.0079z" fill="url(#e)" stroke-width=".26458"/>
</svg>
