<?xml version="1.0" encoding="UTF-8"?>
<svg width="64" height="64" version="1.1" viewBox="0 0 16.933 16.933" xmlns="http://www.w3.org/2000/svg" xmlns:cc="http://creativecommons.org/ns#" xmlns:dc="http://purl.org/dc/elements/1.1/" xmlns:rdf="http://www.w3.org/1999/02/22-rdf-syntax-ns#" xmlns:xlink="http://www.w3.org/1999/xlink">
 <defs>
  <filter id="filter11290-7" x="-.024" y="-.024" width="1.048" height="1.048" color-interpolation-filters="sRGB">
   <feGaussianBlur stdDeviation="0.15875313"/>
  </filter>
  <linearGradient id="b-9" x1="1.4056" x2="8.5759" y1="32.35" y2="20.11" gradientUnits="userSpaceOnUse">
   <stop stop-color="#ff6535" offset="0"/>
   <stop stop-color="#ff7936" offset="1"/>
  </linearGradient>
  <linearGradient id="linearGradient2081" x1=".52884" x2="16.404" y1="8.4667" y2="8.4667" gradientUnits="userSpaceOnUse">
   <stop stop-color="#ff7a26" offset="0"/>
   <stop stop-color="#ff5e22" stop-opacity=".99608" offset="1"/>
  </linearGradient>
 </defs>
 <metadata>
  <rdf:RDF>
   <cc:Work rdf:about="">
    <dc:format>image/svg+xml</dc:format>
    <dc:type rdf:resource="http://purl.org/dc/dcmitype/StillImage"/>
    <dc:title/>
   </cc:Work>
  </rdf:RDF>
 </metadata>
 <circle transform="matrix(1 0 0 1 4.005e-6 4.005e-6)" cx="8.4665" cy="8.4665" r="7.9377" filter="url(#filter11290-7)" opacity=".25" stroke-width=".14032"/>
 <path d="m16.404 8.4669c0 0.95157-0.16749 1.8639-0.47467 2.7094-0.21351 0.5877-0.49441 1.1433-0.83396 1.6572-0.14222 0.21608-0.29515 0.42477-0.45747 0.6253-0.51968 0.64181-1.1372 1.2007-1.8305 1.6543-0.2553 0.16718-0.52066 0.32013-0.79541 0.45713-1.0668 0.53391-2.2711 0.83425-3.5458 0.83425s-2.4789-0.30034-3.5458-0.83428c-0.27474-0.13705-0.54042-0.28999-0.79572-0.45713-0.70208-0.45975-1.327-1.0274-1.8509-1.6798-0.16263-0.20216-0.31526-0.41276-0.45747-0.6308-0.33047-0.50542-0.60424-1.0507-0.81353-1.627-0.30714-0.84534-0.47433-1.7573-0.47433-2.7086 0-4.384 3.554-7.938 7.938-7.938 2.2005 0 4.1919 0.89553 5.6296 2.3417 0.41437 0.41665 0.78276 0.87934 1.0963 1.3795 0.29648 0.4711 0.54431 0.97586 0.73706 1.5068 0.30719 0.84563 0.4747 1.7579 0.4747 2.7094z" fill="url(#linearGradient2081)" stroke-width=".031007"/>
 <g transform="matrix(.30311 0 0 .30311 -1.3763 -.58571)">
  <path d="m20.589 26.939s4.6727 4.3934 10.845 1.9394c12.933-5.1455 12.729-12.661 12.696-13.744-0.03225-1.0833 0.52331-1.1227 0.9716-0.27626 18.406 36.274-21.466 32.529-25.076 26.527 5.9937-4.4059 2.9774-7.4892 2.9774-7.4892z" fill="#6f2619" fill-rule="evenodd" stroke-width=".97794"/>
  <path d="m45.01 17.268c-0.20617 1.0333-0.61319 2.326-1.44 3.7267-1.6987 2.8779-5.1188 6.1899-11.754 8.83-3.8771 1.5416-7.0957 0.62571-9.2604-0.4491l1.3998 4.0968c0.2681 0.33334 0.85638 1.1192 0.86416 2.4878 0.0084 1.4727-1.015 3.3607-3.2456 5.3299 0.40891 0.38788 0.81286 0.77714 1.7619 1.188 1.2929 0.55975 2.9839 1.0531 4.8882 1.3553 3.8087 0.60454 8.4107 0.49806 12.236-0.84438 3.8253-1.3424 6.8587-3.81 7.9717-8.1094 1.026-3.9635 0.2405-9.7412-3.4213-17.612z" fill="none" opacity=".18539" stroke-width=".97794"/>
  <g transform="matrix(.92622 -.34236 .33914 .9072 6.7519 19.18)" fill-rule="evenodd" stroke-miterlimit="10">
   <path transform="matrix(1.2778,0,0,1.2778,-75.127,-6.5078)" d="m72.655 21.837a3.182 3.182 0 1 1-6.364 0 3.182 3.182 0 1 1 6.364 0z" fill="#6f2519" stroke="#ff7836" stroke-width=".78261"/>
   <path transform="rotate(-35.808,3.3629,26.345)" d="m10.43 27.229a4.331 6.0989 0 1 1-8.6621 0 4.331 6.0989 0 1 1 8.6621 0z" fill="#6f2619" stroke="url(#b-9)"/>
   <path transform="matrix(.85185 0 0 .85185 -3.9268 3.3955)" d="m24.042 21.837a2.2981 2.2981 0 1 1-4.5962 0 2.2981 2.2981 0 1 1 4.5962 0z" fill="#ff7c36" stroke="#ff7b36" stroke-width="1.1739"/>
   <path transform="matrix(1.5,0,0,1.5,-82.168,-10.919)" d="m72.655 21.837a3.182 3.182 0 1 1-6.364 0 3.182 3.182 0 1 1 6.364 0z" fill="#6f2719" stroke="#ff7e36" stroke-width=".66667"/>
   <path transform="translate(1.4142 .70711)" d="m24.042 21.837a2.2981 2.2981 0 1 1-4.5962 0 2.2981 2.2981 0 1 1 4.5962 0z" fill="#ff7c36" stroke="#ff7c36"/>
  </g>
 </g>
</svg>
