<?xml version="1.0" encoding="UTF-8"?>
<svg width="64" height="64" version="1.1" viewBox="0 0 16.933 16.933" xmlns="http://www.w3.org/2000/svg" xmlns:cc="http://creativecommons.org/ns#" xmlns:dc="http://purl.org/dc/elements/1.1/" xmlns:rdf="http://www.w3.org/1999/02/22-rdf-syntax-ns#" xmlns:xlink="http://www.w3.org/1999/xlink">
 <defs>
  <filter id="filter11290-7" x="-.024" y="-.024" width="1.048" height="1.048" color-interpolation-filters="sRGB">
   <feGaussianBlur stdDeviation="0.15875313"/>
  </filter>
  <linearGradient id="e-3" x1="74.643" x2="83.932" y1="18.269" y2="101.96" gradientUnits="userSpaceOnUse" xlink:href="#a-5"/>
  <linearGradient id="a-5">
   <stop stop-color="#ccc" offset="0"/>
   <stop stop-color="#fff" offset="1"/>
  </linearGradient>
  <linearGradient id="d-3" x1="40.533" x2="37.578" y1="107.5" y2="15.159" gradientUnits="userSpaceOnUse" xlink:href="#a-5"/>
  <linearGradient id="a-6" x1="15.544" x2="1.4428" y1="1.2571" y2="15.647" gradientTransform="matrix(1 0 0 1 -.027 .0064996)" gradientUnits="userSpaceOnUse">
   <stop stop-color="#ff462b" offset="0"/>
   <stop stop-color="#ff3c69" offset="1"/>
  </linearGradient>
 </defs>
 <metadata>
  <rdf:RDF>
   <cc:Work rdf:about="">
    <dc:format>image/svg+xml</dc:format>
    <dc:type rdf:resource="http://purl.org/dc/dcmitype/StillImage"/>
    <dc:title/>
   </cc:Work>
  </rdf:RDF>
 </metadata>
 <circle transform="matrix(1 0 0 1 4.005e-6 4.005e-6)" cx="8.4665" cy="8.4665" r="7.9377" filter="url(#filter11290-7)" opacity=".25" stroke-width=".14032"/>
 <circle cx="8.4667" cy="8.4667" r="7.9377" fill="url(#a-6)" style="paint-order:normal"/>
 <g transform="matrix(.11584 0 0 .11584 1.5219 1.5164)">
  <path d="m42.84 31.571c4.6462-5.4828 10.653-8.7986 17.204-8.7986 14.745 0 26.698 16.72 26.698 37.331 0 20.621-11.953 37.331-26.698 37.331-6.5612 0-12.558-3.3058-17.204-8.7885 7.2667 9.4336 18.061 15.42 30.125 15.42 7.4178 0 14.362-2.2677 20.298-6.1983 10.371-9.2723 16.892-22.747 16.892-37.754 0-14.997-6.5209-28.482-16.892-37.754-5.9363-3.9407-12.88-6.1983-20.298-6.1983-12.064 0-22.858 5.9867-30.125 15.42" fill="url(#e-3)"/>
  <path d="m60 9.75c-27.75 0-50.25 22.5-50.25 50.25 0 26.95 21.22 48.94 47.86 50.19 0.8 0.04 1.59 0.06 2.39 0.06 12.87 0 24.6-4.84 33.49-12.79-5.89 3.91-12.78 6.15-20.14 6.15-11.97 0-22.68-5.94-29.89-15.3-5.56-6.56-9.15-16.25-9.4-27.13v-2.37c0.25-10.88 3.84-20.58 9.4-27.13 7.21-9.36 17.93-15.3 29.89-15.3 7.36 0 14.25 2.25 20.14 6.16-8.84-7.91-20.51-12.74-33.3-12.79z" fill="url(#d-3)"/>
 </g>
</svg>
