<?xml version="1.0" encoding="UTF-8"?>
<svg width="64" height="64" version="1.1" viewBox="0 0 16.933 16.933" xmlns="http://www.w3.org/2000/svg" xmlns:cc="http://creativecommons.org/ns#" xmlns:dc="http://purl.org/dc/elements/1.1/" xmlns:rdf="http://www.w3.org/1999/02/22-rdf-syntax-ns#">
 <defs>
  <filter id="filter11290-7" x="-.024" y="-.024" width="1.048" height="1.048" color-interpolation-filters="sRGB">
   <feGaussianBlur stdDeviation="0.15875313"/>
  </filter>
  <linearGradient id="a-3-3" x1="61.531" x2="2.6611" y1="2" y2="61.808" gradientTransform="scale(.26458)" gradientUnits="userSpaceOnUse">
   <stop stop-color="#dc28e6" offset="0"/>
   <stop stop-color="#8c14e6" offset="1"/>
  </linearGradient>
 </defs>
 <metadata>
  <rdf:RDF>
   <cc:Work rdf:about="">
    <dc:format>image/svg+xml</dc:format>
    <dc:type rdf:resource="http://purl.org/dc/dcmitype/StillImage"/>
    <dc:title/>
   </cc:Work>
  </rdf:RDF>
 </metadata>
 <circle transform="translate(4.005e-6 4.005e-6)" cx="8.4665" cy="8.4665" r="7.9377" filter="url(#filter11290-7)" opacity=".25" stroke-width=".14032"/>
 <circle cx="8.4665" cy="8.4665" r="7.9375" fill="url(#a-3-3)" stroke-width=".26458" style="paint-order:stroke markers fill"/>
 <g transform="matrix(.32352 0 0 .32352 -121.93 -158.31)" fill="#fff" fill-opacity=".85081" stroke-width="1.3174">
  <path transform="matrix(.19491 -.049459 .049459 .19491 387.2 514.29)" d="m82.529 30.774c0-1.2204-0.92289-1.9788-2.7711-2.2757l-24.831-3.6108-11.13-22.508c-0.62599-1.3522-1.4347-2.0279-2.4238-2.0279-0.98907 0-1.7972 0.67577-2.4238 2.0279l-11.131 22.508-24.832 3.6108c-1.8464 0.2969-2.7699 1.0553-2.7699 2.2757 0 0.69278 0.41226 1.4845 1.2368 2.3746l18.006 17.511-4.2538 24.733c-0.06618 0.46205-0.09897 0.79235-0.09897 0.98968 0 0.69278 0.17304 1.2775 0.51913 1.7565 0.34608 0.47845 0.86521 0.71706 1.558 0.71706 0.59381 0 1.2532-0.19672 1.9788-0.5932l22.21-11.675 22.212 11.675c0.69338 0.39587 1.3528 0.5932 1.9781 0.5932 0.6612 0 1.1633-0.23801 1.5094-0.71706 0.34548-0.47845 0.51852-1.0638 0.51852-1.7565 0-0.42866-0.01639-0.75835-0.04979-0.98968l-4.2544-24.733 17.956-17.511c0.85853-0.85732 1.2866-1.6491 1.2866-2.3746z"/>
  <path d="m417.36 523.8c0.0585-0.15548-0.0227-0.29635-0.24388-0.42283l-2.9902-1.651-0.33835-3.4013c-0.0149-0.20228-0.0855-0.32717-0.21152-0.37461-0.12601-0.0474-0.26138-1.1e-4 -0.40606 0.14209l-2.4976 2.3336-3.3368-0.73108c-0.24946-0.0508-0.40349 2e-3 -0.46203 0.15705-0.0332 0.0883-0.0187 0.2089 0.0437 0.36185l1.454 3.0946-1.7283 2.947c-0.0306 0.0557-0.0506 0.0962-0.0601 0.12132-0.0332 0.0882-0.0392 0.17106-0.0181 0.2487 0.0211 0.0775 0.0758 0.13284 0.16409 0.16606 0.0756 0.0285 0.1691 0.035 0.28056 0.0193l3.3895-0.42208 2.2698 2.5528c0.0693 0.0837 0.14387 0.14051 0.22354 0.1705 0.0842 0.0317 0.15962 0.0255 0.22669-0.0189 0.0669-0.0444 0.1171-0.11064 0.15033-0.19891 0.0206-0.0546 0.0345-0.0973 0.0409-0.12854l0.64435-3.355 3.1275-1.3696c0.15051-0.068 0.24302-0.14838 0.27782-0.24082z"/>
  <path transform="matrix(.13494 -.081343 .081343 .13494 399.71 508.79)" d="m82.529 30.774c0-1.2204-0.92289-1.9788-2.7711-2.2757l-24.831-3.6108-11.13-22.508c-0.62599-1.3522-1.4347-2.0279-2.4238-2.0279-0.98907 0-1.7972 0.67577-2.4238 2.0279l-11.131 22.508-24.832 3.6108c-1.8464 0.2969-2.7699 1.0553-2.7699 2.2757 0 0.69278 0.41226 1.4845 1.2368 2.3746l18.006 17.511-4.2538 24.733c-0.06618 0.46205-0.09897 0.79235-0.09897 0.98968 0 0.69278 0.17304 1.2775 0.51913 1.7565 0.34608 0.47845 0.86521 0.71706 1.558 0.71706 0.59381 0 1.2532-0.19672 1.9788-0.5932l22.21-11.675 22.212 11.675c0.69338 0.39587 1.3528 0.5932 1.9781 0.5932 0.6612 0 1.1633-0.23801 1.5094-0.71706 0.34548-0.47845 0.51852-1.0638 0.51852-1.7565 0-0.42866-0.01639-0.75835-0.04979-0.98968l-4.2544-24.733 17.956-17.511c0.85853-0.85732 1.2866-1.6491 1.2866-2.3746z"/>
  <path d="m403.84 507.74c0.0585-0.15548-0.0227-0.29635-0.24388-0.42283l-2.9902-1.651-0.33835-3.4013c-0.0149-0.20228-0.0855-0.32717-0.21152-0.37461-0.12601-0.0474-0.26138-1.1e-4 -0.40606 0.14209l-2.4976 2.3336-3.3368-0.73108c-0.24946-0.0508-0.40349 2e-3 -0.46203 0.15705-0.0332 0.0883-0.0187 0.2089 0.0437 0.36185l1.454 3.0946-1.7283 2.947c-0.0306 0.0557-0.0506 0.0962-0.0601 0.12132-0.0332 0.0882-0.0392 0.17106-0.0181 0.2487 0.0211 0.0775 0.0758 0.13284 0.16409 0.16606 0.0756 0.0285 0.1691 0.035 0.28056 0.0193l3.3895-0.42208 2.2698 2.5528c0.0693 0.0837 0.14387 0.14051 0.22354 0.1705 0.0842 0.0317 0.15962 0.0255 0.22669-0.0189 0.0669-0.0444 0.1171-0.11064 0.15033-0.19891 0.0206-0.0546 0.0345-0.0973 0.0409-0.12854l0.64435-3.355 3.1275-1.3696c0.15051-0.068 0.24302-0.14838 0.27782-0.24082z"/>
 </g>
</svg>
