<?xml version="1.0" encoding="UTF-8"?>
<svg width="64" height="64" version="1.1" viewBox="0 0 16.933 16.933" xmlns="http://www.w3.org/2000/svg" xmlns:cc="http://creativecommons.org/ns#" xmlns:dc="http://purl.org/dc/elements/1.1/" xmlns:rdf="http://www.w3.org/1999/02/22-rdf-syntax-ns#" xmlns:xlink="http://www.w3.org/1999/xlink">
 <defs>
  <filter id="filter11290-7" x="-.024" y="-.024" width="1.048" height="1.048" color-interpolation-filters="sRGB">
   <feGaussianBlur stdDeviation="0.15875313"/>
  </filter>
  <linearGradient id="b" x1="409.12" x2="409.49" y1="566.32" y2="480.84" gradientTransform="matrix(.26458 0 0 .26458 -96.408 -133.09)" gradientUnits="userSpaceOnUse">
   <stop stop-color="#ececec" offset="0"/>
   <stop stop-color="#fefefe" offset="1"/>
  </linearGradient>
  <linearGradient id="a-35" x1="409.07" x2="409.44" y1="567.02" y2="480.08" gradientTransform="matrix(.26458 0 0 .26458 -96.408 -133.09)" gradientUnits="userSpaceOnUse">
   <stop stop-color="#e42238" offset="0"/>
   <stop stop-color="#f55" offset="1"/>
  </linearGradient>
 </defs>
 <metadata>
  <rdf:RDF>
   <cc:Work rdf:about="">
    <dc:format>image/svg+xml</dc:format>
    <dc:type rdf:resource="http://purl.org/dc/dcmitype/StillImage"/>
    <dc:title/>
   </cc:Work>
  </rdf:RDF>
 </metadata>
 <circle transform="translate(4.005e-6 4.005e-6)" cx="8.4665" cy="8.4665" r="7.9377" filter="url(#filter11290-7)" opacity=".25" stroke-width=".14032"/>
 <circle cx="8.4667" cy="8.4667" r="7.9379" fill="#f5faff" style="paint-order:normal"/>
 <g transform="matrix(.76087 0 0 .76087 -.42871 4.1613)" stroke-width=".34856">
  <path d="m17.672 3.3743c-0.067716-0.81015-0.55077-1.8318-1.5435-1.8683-2.772-0.18638-6.056-0.23734-8.8782 0-0.87558 0.098135-1.4758 1.1646-1.5412 1.9748-0.13844 1.7017-0.13844 2.6701 0 4.3718 0.066181 0.81015 0.65117 1.8828 1.5427 1.9953 1.165 0.15672 7.7847 0.1685 8.8782 0 0.86416-0.14986 1.4765-1.1852 1.5427-1.9953 0.13767-1.7025 0.13767-2.7766-0.0011-4.4783z" fill="url(#a-35)"/>
  <path d="m10.168 3.4623v4.3627l3.8038-2.1804z" fill="url(#b)"/>
 </g>
</svg>
