<?xml version="1.0" encoding="UTF-8"?>
<svg width="64" height="64" version="1.1" viewBox="0 0 16.933 16.933" xmlns="http://www.w3.org/2000/svg" xmlns:cc="http://creativecommons.org/ns#" xmlns:dc="http://purl.org/dc/elements/1.1/" xmlns:rdf="http://www.w3.org/1999/02/22-rdf-syntax-ns#" xmlns:xlink="http://www.w3.org/1999/xlink">
 <defs>
  <filter id="filter11290-7" x="-.024" y="-.024" width="1.048" height="1.048" color-interpolation-filters="sRGB">
   <feGaussianBlur stdDeviation="0.15875313"/>
  </filter>
 </defs>
 <metadata>
  <rdf:RDF>
   <cc:Work rdf:about="">
    <dc:format>image/svg+xml</dc:format>
    <dc:type rdf:resource="http://purl.org/dc/dcmitype/StillImage"/>
    <dc:title/>
   </cc:Work>
  </rdf:RDF>
 </metadata>
 <circle transform="translate(4.005e-6 4.005e-6)" cx="8.4665" cy="8.4665" r="7.9377" filter="url(#filter11290-7)" opacity=".25" stroke-width=".14032"/>
 <circle cx="8.4667" cy="8.4667" r="7.9379" fill="#f5faff" style="paint-order:normal"/>
 <g transform="matrix(1.1667 0 0 1.1667 3.7097 -5.9009)" stroke-width=".26458">
  <path d="m3.8127 8.3462c-1.7535 0-3.1749 1.4215-3.1749 3.1749 0 1.7535 1.4215 3.1749 3.1749 3.1749zm-0.52916 0.58548v5.1815c-1.2317-0.25143-2.1172-1.3354-2.1166-2.592 6.085e-4 -1.2567 0.88583-2.3382 2.1166-2.5895z" fill="#0aafdc" style="paint-order:normal"/>
  <path d="m4.3418 9.9337c1.7535 0 3.1749 1.4215 3.1749 3.1749s-1.4215 3.1749-3.1749 3.1749zm0.52916 0.58548v5.1815c1.2317-0.25143 2.1172-1.3354 2.1166-2.592-6.085e-4 -1.2567-0.88583-2.3382-2.1166-2.5895z" fill="#f5523f" style="paint-order:normal"/>
 </g>
</svg>
